<?xml version="1.0" standalone="no"?>
<!DOCTYPE svg PUBLIC "-//W3C//DTD SVG 20010904//EN"
 "http://www.w3.org/TR/2001/REC-SVG-20010904/DTD/svg10.dtd">
<svg version="1.0" xmlns="http://www.w3.org/2000/svg"
 width="300.000000pt" height="300.000000pt" viewBox="0 0 300.000000 300.000000"
 preserveAspectRatio="xMidYMid meet">
<metadata>
Created by potrace 1.10, written by Peter Selinger 2001-2011
</metadata>
<g transform="translate(0.000000,300.000000) scale(0.100000,-0.100000)"
fill="#000000" stroke="none">
<path d="M300 2515 c0 -158 2 -185 15 -185 13 0 15 26 15 170 l0 170 160 0
c136 0 160 2 160 15 0 13 -26 15 -175 15 l-175 0 0 -185z"/>
<path d="M2340 2675 c0 -13 26 -15 170 -15 l170 0 0 -160 c0 -136 2 -160 15
-160 13 0 15 26 15 175 l0 175 -185 0 c-158 0 -185 -2 -185 -15z"/>
<path d="M1360 2531 c-53 -14 -111 -172 -129 -351 -15 -137 -20 -320 -10 -320
5 0 9 4 9 9 0 5 27 56 59 113 56 96 64 106 128 145 184 113 396 198 523 209
l69 7 -47 39 c-58 49 -207 123 -287 143 -61 15 -267 19 -315 6z m312 -50 c80
-21 185 -69 207 -95 11 -13 6 -16 -31 -26 -184 -46 -489 -202 -544 -278 -16
-20 -32 -41 -37 -47 -6 -6 -7 30 -4 95 9 167 63 341 111 360 41 17 219 11 298
-9z"/>
<path d="M1181 2469 c-87 -43 -117 -64 -186 -132 -84 -84 -138 -163 -174 -254
l-20 -52 40 -60 c69 -104 194 -207 412 -340 37 -22 67 -38 67 -35 0 3 -29 55
-65 115 l-65 109 0 119 c0 255 32 426 108 574 7 14 -15 6 -117 -44z m26 -66
c-4 -16 -13 -60 -21 -99 -19 -88 -36 -270 -36 -389 0 -74 4 -99 25 -142 13
-29 19 -53 14 -53 -6 0 -45 24 -87 53 -90 62 -209 177 -236 229 -19 34 -19 38
-3 80 42 108 152 239 261 309 72 47 91 50 83 12z"/>
<path d="M1834 2290 c-80 -22 -212 -80 -352 -155 l-93 -50 144 -5 143 -5 85
-49 c188 -109 363 -254 416 -344 26 -44 27 -44 36 -21 18 42 13 266 -7 338
-25 92 -66 176 -120 249 l-46 62 -67 -1 c-38 0 -100 -9 -139 -19z m215 -57
c41 -49 96 -163 116 -238 14 -53 22 -221 11 -233 -3 -2 -41 30 -85 71 -135
127 -392 287 -461 287 -68 0 -68 16 -1 50 106 53 258 100 328 100 59 0 63 -2
92 -37z"/>
<path d="M1680 2037 c0 -2 29 -53 65 -113 l65 -109 0 -121 c0 -228 -32 -423
-85 -527 -14 -27 -25 -51 -25 -53 0 -11 136 57 208 103 106 70 187 163 246
284 44 90 45 93 29 123 -56 110 -201 239 -416 369 -74 45 -87 51 -87 44z m216
-173 c100 -70 206 -175 236 -230 l22 -42 -44 -89 c-34 -70 -60 -104 -124 -168
-75 -74 -179 -145 -193 -131 -4 3 4 50 16 103 23 108 41 282 41 413 0 70 -5
95 -25 138 -14 30 -25 56 -25 58 0 12 26 -2 96 -52z"/>
<path d="M783 1953 c-13 -80 -8 -242 11 -313 24 -89 74 -193 127 -264 l44 -58
75 5 c82 6 176 32 285 79 78 34 275 140 275 148 0 3 -56 4 -126 2 l-125 -3
-67 37 c-203 111 -395 264 -460 367 l-31 49 -8 -49z m276 -271 c165 -114 261
-165 319 -170 28 -2 52 -8 52 -12 0 -4 -25 -19 -56 -34 -127 -62 -266 -105
-345 -106 -46 0 -84 37 -132 129 -56 105 -77 189 -77 298 l0 95 74 -70 c41
-38 115 -97 165 -130z"/>
<path d="M1715 1661 c-56 -103 -63 -111 -125 -149 -98 -61 -279 -148 -367
-178 -43 -15 -114 -29 -158 -33 l-80 -6 70 -52 c164 -122 338 -170 538 -149
66 7 68 9 91 49 37 63 65 157 81 265 17 121 29 362 18 362 -4 0 -35 -49 -68
-109z m11 -271 c-19 -105 -49 -191 -81 -228 -23 -27 -25 -27 -147 -27 -138 1
-198 15 -309 71 -71 35 -89 51 -67 58 7 3 54 17 103 32 91 28 309 133 400 193
28 18 64 51 80 74 l30 42 3 -63 c2 -34 -4 -103 -12 -152z"/>
<path d="M577 842 c-14 -15 -17 -40 -17 -120 0 -113 5 -119 54 -77 16 13 33
22 37 19 5 -3 9 1 9 9 0 8 7 20 15 27 13 10 15 9 15 -9 0 -12 -7 -33 -16 -46
-11 -16 -14 -36 -11 -55 5 -23 2 -32 -13 -40 -24 -13 -28 -13 -27 3 0 6 -1 22
-1 35 -2 22 -3 22 -32 7 -36 -19 -40 -55 -10 -85 15 -15 33 -20 79 -20 75 0
72 -6 57 134 -3 27 -1 56 4 65 4 9 6 29 3 44 l-5 27 -39 -22 c-22 -12 -39 -27
-39 -34 0 -7 -8 -10 -20 -7 -25 7 -25 20 -3 45 15 17 15 20 3 28 -11 7 -12 14
-4 27 17 27 33 26 40 -2 5 -21 11 -25 28 -21 11 3 27 6 34 6 22 0 13 47 -13
64 -34 22 -107 21 -128 -2z"/>
<path d="M760 680 l0 -179 37 -10 c44 -12 46 -11 34 20 -4 13 -9 74 -10 134
-1 61 -4 120 -8 132 -6 28 20 41 43 22 13 -11 15 -35 12 -156 l-3 -143 34 -10
c19 -5 36 -8 37 -7 1 1 -3 23 -9 48 -8 30 -10 87 -5 170 6 119 5 125 -15 141
-26 21 -58 23 -75 6 -9 -9 -12 -9 -12 0 0 7 -13 12 -30 12 l-30 0 0 -180z"/>
<path d="M977 842 c-14 -16 -17 -44 -17 -180 0 -144 2 -161 18 -166 9 -2 27
-7 39 -11 20 -6 22 -3 16 32 -3 21 -10 42 -14 48 -19 19 -9 62 20 87 16 15 31
32 33 40 12 31 20 -5 10 -39 -6 -21 -14 -64 -17 -95 l-6 -57 38 -10 c42 -12
51 -8 34 13 -9 10 -12 61 -10 171 2 142 0 157 -17 170 -28 21 -107 19 -127 -3z
m91 -71 c2 -37 -2 -51 -18 -66 -11 -10 -20 -22 -20 -27 0 -13 -30 -42 -36 -35
-8 8 17 80 30 90 8 5 6 10 -4 17 -13 9 -13 10 0 10 12 0 13 2 1 9 -20 13 -5
46 21 47 21 1 23 -4 26 -45z"/>
<path d="M1160 680 l0 -179 38 -10 c51 -15 54 -14 42 8 -5 11 -10 35 -10 53 0
19 -5 39 -12 46 -16 16 9 44 32 37 11 -3 20 1 24 10 3 8 9 15 13 14 22 -4 47
2 38 9 -14 10 -17 96 -4 129 15 41 -18 62 -98 63 l-63 0 0 -180z m96 128 c15
-23 10 -93 -7 -116 -10 -13 -21 -23 -26 -23 -4 1 -9 -3 -9 -9 -1 -5 -2 -14 -3
-20 0 -5 -5 -10 -11 -10 -17 0 -11 37 11 77 15 27 18 38 9 41 -9 3 -9 7 1 13
10 6 11 9 2 9 -16 0 -17 22 -1 38 15 15 25 15 34 0z"/>
<path d="M1372 847 c-7 -8 -12 -80 -14 -180 l-3 -167 34 -10 c19 -5 36 -8 37
-7 2 2 0 29 -3 62 -4 39 -9 53 -13 40 -5 -14 -9 -4 -14 32 -7 56 0 103 18 116
8 5 7 10 -3 16 -11 7 -11 9 0 14 10 4 10 6 2 6 -7 1 -13 11 -13 24 0 24 21 30
48 13 20 -12 15 -93 -8 -109 -10 -7 -24 -26 -30 -42 -10 -27 -10 -28 12 -13
13 8 27 25 33 36 11 24 29 24 31 1 0 -8 -6 -24 -13 -37 -9 -15 -13 -45 -11
-84 3 -62 3 -62 36 -69 l33 -7 -6 37 c-11 66 -13 155 -6 225 6 58 5 71 -12 92
-15 20 -27 24 -72 24 -31 0 -57 -5 -63 -13z"/>
<path d="M1562 678 l3 -183 73 -5 c68 -5 72 -4 72 16 0 32 -25 47 -64 41 -32
-5 -34 -4 -31 21 7 59 8 269 1 280 -4 7 -18 12 -32 12 l-24 0 2 -182z"/>
<path d="M1725 741 c0 -83 4 -122 12 -125 6 -3 14 2 17 9 3 8 12 12 19 9 9 -3
16 3 20 15 3 12 12 21 20 21 8 0 18 14 23 33 l8 32 3 -34 c3 -18 0 -38 -6 -44
-6 -6 -11 -33 -11 -59 0 -41 -3 -48 -19 -48 -11 0 -23 9 -26 20 -8 24 -14 25
-42 5 -14 -10 -19 -22 -16 -36 9 -34 46 -50 104 -47 l54 3 0 180 0 180 -27 3
c-28 3 -28 3 -28 -61 0 -45 -5 -68 -15 -77 -8 -7 -12 -17 -8 -23 4 -7 0 -8
-11 -4 -10 4 -20 7 -22 7 -9 0 -4 36 7 47 5 5 9 32 7 59 -3 46 -5 49 -33 52
l-30 3 0 -120z"/>
<path d="M1920 831 c0 -21 6 -30 22 -34 12 -4 28 -1 35 4 6 6 16 8 22 5 5 -3
12 1 15 10 3 8 10 12 16 9 6 -4 2 -17 -10 -33 -27 -36 -100 -230 -100 -264 0
-31 9 -35 107 -41 l62 -3 -6 25 c-3 14 -8 29 -10 34 -6 10 -71 9 -78 -2 -3 -6
-14 -9 -23 -8 -17 1 -17 4 -5 29 8 15 20 28 27 28 8 0 12 10 11 25 -2 14 1 23
6 19 5 -3 9 3 9 13 0 11 6 28 14 38 8 11 12 32 9 48 -4 24 -1 29 10 24 13 -5
14 1 10 30 -4 26 -3 34 5 29 13 -8 15 4 6 28 -5 13 -22 16 -80 16 l-74 0 0
-29z"/>
<path d="M2122 848 c-8 -8 -12 -63 -12 -180 0 -191 -9 -174 98 -180 47 -3 52
-1 52 17 0 29 -19 45 -54 45 -17 0 -38 5 -46 10 -13 9 -13 12 2 23 16 13 16
15 1 30 -13 13 -14 19 -3 31 7 9 22 16 34 17 42 1 51 12 46 52 l-5 38 -37 -31
c-21 -17 -38 -40 -38 -51 0 -11 -4 -17 -10 -14 -15 9 -12 46 6 80 10 19 11 31
5 33 -12 4 -15 52 -3 52 4 -1 18 -7 32 -15 38 -22 70 -19 70 6 0 11 -6 27 -14
35 -18 17 -107 19 -124 2z"/>
<path d="M2280 681 l0 -179 45 -14 c40 -14 61 -9 35 7 -5 3 -10 17 -10 31 0
13 -4 32 -9 42 -14 28 -31 87 -31 108 0 11 9 30 20 42 12 12 16 23 10 27 -6 4
-8 10 -5 14 2 5 -2 17 -10 27 -17 22 -20 48 -5 39 6 -4 7 -11 4 -17 -4 -6 3
-5 16 2 18 10 24 9 35 -6 16 -22 9 -82 -13 -106 -13 -16 -13 -18 9 -27 20 -7
21 -10 8 -16 -13 -5 -15 -14 -9 -43 16 -79 36 -108 85 -124 25 -9 45 -15 45
-14 0 0 -20 39 -44 86 -43 81 -45 84 -56 60 l-11 -25 6 25 c2 14 5 31 5 38 0
8 10 12 26 10 l26 -3 0 79 c0 100 -15 115 -109 116 l-63 0 0 -179z"/>
<path d="M2680 501 l0 -171 -160 -2 c-224 -4 -215 -22 13 -26 l177 -2 -2 181
c-2 135 -6 183 -15 187 -10 3 -13 -35 -13 -167z"/>
<path d="M300 485 l0 -175 186 0 c144 0 185 3 182 13 -4 9 -49 13 -171 15
l-167 2 0 160 c0 136 -2 160 -15 160 -13 0 -15 -26 -15 -175z"/>
</g>
</svg>
